<svg xmlns="http://www.w3.org/2000/svg" viewBox="0 0 128 192">
<g>
	<path d="M89.3,52.3c7.6,0,13.7-6.1,13.7-13.7s-6.1-13.7-13.7-13.7S75.6,31,75.6,38.6S81.7,52.3,89.3,52.3z" fill="currentColor"/>
	<path d="M127.9,0H0v192h127.9c0,0,0.1-0.1,0.1-0.1V0.2C128,0.1,128,0,127.9,0z M117.9,10l0.1,155.2l-27.9-53.8
		c-0.8-2.3-2.1-4.1-3.6-4.1c-1.4,0-2.4,1.6-3.6,3.8l-5.3,10.4c-1.1,1.8-2,3.1-3.2,3.1c-1.2,0-2.3-1.1-3.1-2.7
		c-0.3-0.6-0.8-1.7-1.2-2.7L55,80.8c-1.1-3-2.8-4.9-4.7-4.9c-1.9,0-3.6,2.2-4.7,5.1L10,165.1V9.8L117.9,10z" fill="currentColor"/>
</g>
</svg>
